<?xml version="1.0" encoding="UTF-8"?>
<svg width="200" height="200" version="1.1" viewBox="0 0 52.917 52.917" xmlns="http://www.w3.org/2000/svg" xmlns:cc="http://creativecommons.org/ns#" xmlns:dc="http://purl.org/dc/elements/1.1/" xmlns:rdf="http://www.w3.org/1999/02/22-rdf-syntax-ns#" xmlns:xlink="http://www.w3.org/1999/xlink">
 <metadata>
  <rdf:RDF>
   <cc:Work rdf:about="">
    <dc:format>image/svg+xml</dc:format>
    <dc:type rdf:resource="http://purl.org/dc/dcmitype/StillImage"/>
    <dc:title/>
   </cc:Work>
  </rdf:RDF>
 </metadata>
 <g display="none">
  <path transform="scale(.26458)" d="m87.857 18.215v21.266l-42.752 42.752h-17.248v31.34h18.791l39.908 39.91v22.031h31.316v-22.176l41.73-41.73h17.182v-29.197h-17.426l-42.217-42.215v-21.98zm14.285 19.838 59.258 59.258-59.258 59.258-56.607-56.607v-5.3008z" fill="#00f" fill-rule="evenodd" opacity=".7" stroke-width="1.0476"/>
 </g>
 <g fill="#fff">
  <path transform="scale(.26458)" d="m87.883 18.436 0.12695 19.572-43.059 44.445-17.299-0.125-0.15234 31.422 19.643-0.17773 39.822 44.105-0.35742 17.857v86.367h31.187v-86.367h0.0625l-0.17969-19.82 42.5-44.107 16.25 0.35742-0.17773-29.465h-18.393l-41.059-45.883v-18.055l-28.916-0.12695zm13.367 18.707 3.0352 0.17969 25.715 28.035-12.678 13.393-14.107-13.75h-3.0371l-12.855 13.035-12.322-13.035 26.25-27.857zm33.035 33.215 25.715 26.785-0.35742 3.75-24.107 24.107-1.6074-0.17773-12.855-12.857 13.213-12.857 0.17968-3.5723-13.037-12.32 12.857-12.857zm-63.57 0.17773 12.32 11.965-13.57 13.572 0.17773 2.6777 13.572 13.572-12.68 13.213-24.82-24.643-0.17969-5.1777 25.18-25.18zm30.713 3.3926 1.4297 0.17969 22.857 23.035-22.68 23.572h-1.4277l-23.035-23.215 22.855-23.572zm15 42.322 13.93 13.572-26.785 28.035h-3.5723l-25.178-27.322 13.035-13.213 13.035 12.143 2.6797 0.35743 12.855-13.572z" opacity=".8"/>
  <path transform="scale(.26458)" d="m86.922 209.47 0.03379-52.263-39.694-44.017-19.446 0.30292 5.15e-4 -15.554 5.15e-4 -15.554 17.307 0.2986 43.459-44.779-0.33232-9.5563-0.33231-9.5563h28.792v18.187l41.164 45.957 17.775 1.41e-4 0.33016 6.1402c0.18159 3.3771 0.33015 9.8904 0.33015 14.474v8.3338l-16.415-0.56201-42.282 44.092 0.0736 53.159 0.0736 53.159h-30.87l0.03379-52.263zm30.209-65.366c7.2685-7.6096 13.215-14.009 13.215-14.221 0-0.46137-12.979-13.281-13.708-13.541-0.27959-0.0995-3.3522 2.7984-6.828 6.4397-4.3119 4.5173-6.6668 6.6195-7.4125 6.6173-0.69394-2e-3 -3.4783-2.2147-7.627-6.0609-3.5937-3.3317-6.6653-6.0576-6.8258-6.0576-0.16048 0-3.2412 2.956-6.8461 6.5689-5.0396 5.0508-6.4386 6.7334-6.0536 7.2808 0.27537 0.39153 5.9555 6.6384 12.623 13.882l12.122 13.17 2.0631-0.1214c1.9969-0.11752 2.487-0.56522 15.279-13.957zm-37.168-27.994 3.581-3.9491-6.9034-6.9166c-4.2633-4.2715-6.9034-7.3031-6.9034-7.9272 0-0.62487 2.6033-3.6086 6.8203-7.8169 3.7512-3.7434 6.7625-6.9223 6.6918-7.064-0.07064-0.1418-2.9177-2.9783-6.3268-6.3033l-6.1984-6.0455-25.231 25.215v5.556l24.983 24.998 2.9527-2.8988c1.624-1.5943 4.5642-4.6759 6.5337-6.8479zm67.931-2.9919c11.799-11.792 12.252-12.317 12.252-14.208 0-2.1261 1.0679-0.90127-19.785-22.693l-5.8954-6.1607-13.289 13.132 6.6339 6.3643c6.1891 5.9376 6.6111 6.4625 6.294 7.8287-0.21969 0.94666-2.6435 3.7912-6.8558 8.0458l-6.5159 6.5815 6.7428 6.6768c3.7086 3.6722 7.0632 6.6768 7.4548 6.6768s6.2253-5.5099 12.964-12.244zm-34.924-2.2767c5.2916-5.4864 10.382-10.844 11.311-11.906l1.6897-1.9312-11.571-11.58c-6.3642-6.3688-11.917-11.58-12.34-11.58-0.69027 0-5.7821 4.9954-19.438 19.07l-4.5361 4.6752 11.605 11.614c7.5249 7.5302 11.966 11.614 12.632 11.614 0.6723 0 4.3451-3.4409 10.647-9.9752zm11.176-38.877 6.2466-6.6183-13.002-14.186c-12.465-13.601-13.076-14.184-14.797-14.143-1.6796 0.03994-2.6292 0.93188-14.813 13.913-11.633 12.394-12.95 13.967-12.374 14.782 0.35405 0.50126 3.1611 3.5452 6.2379 6.7642l5.5942 5.8528 6.5204-6.5349c5.4057-5.4178 6.7744-6.5349 8.0061-6.5349 1.2321 0 2.6562 1.1633 8.341 6.8133 3.7704 3.7473 7.0662 6.7453 7.3241 6.6623 0.25785-0.08307 3.2798-3.1293 6.7154-6.7694z" opacity=".8"/>
  <path transform="scale(.26458)" d="m87.072 209.37 0.09896-52.212-39.713-43.942-19.407 0.1812v-30.929l17.095 0.37139 43.581-44.88-0.15858-3.9143c-0.087219-2.1529-0.23392-6.4429-0.326-9.5333l-0.16742-5.619h28.616l8e-3 9.1545 8e-3 9.1545 40.965 45.709 17.795 0.13258 0.16574 1.954c0.23123 2.726 0.64501 16.944 0.65131 22.379l5e-3 4.5152-1.4521-0.14975c-0.79865-0.0824-4.5204-0.22452-8.2706-0.31591l-6.8185-0.16616-42.347 44.129 0.1706 53.096 0.17059 53.096h-30.771l0.09896-52.212zm17.716-52.566c4.0822-3.5512 25.542-26.242 25.542-27.007 0-0.41032-12.125-12.578-13.303-13.35-0.60087-0.3937-0.65897-0.34426-7.0999 6.0411-3.5717 3.5409-6.7571 6.5215-7.0786 6.6236-0.94358 0.29947-2.5899-0.95945-9.5138-7.2751-1.8068-1.648-3.7684-3.3951-4.3592-3.8823l-1.0741-0.88587-3.4716 3.3564c-4.4568 4.309-9.6587 9.8428-9.6587 10.275 0 0.39185 1.5189 2.098 12.749 14.32 4.5861 4.9915 9.1907 10.027 10.232 11.189l1.894 2.1137 1.8587-0.13973c1.785-0.13419 1.9153-0.18892 3.283-1.3787zm-30.372-34.688c3.4655-3.5467 8.0987-8.5325 8.918-9.5967 0.3081-0.4002-0.29176-1.0873-6.0674-6.9496-3.5251-3.578-6.6295-6.9211-6.8986-7.429l-0.48928-0.92345 0.73955-1.0672c0.40675-0.58694 3.4396-3.8499 6.7396-7.251 3.3-3.4011 6-6.2542 6-6.3402 0-0.08601-2.8413-2.9959-6.3139-6.4665l-6.3139-6.3101-25.253 25.249v6.0609l12.437 12.438c6.8401 6.8412 12.504 12.438 12.587 12.438 0.08273 0 1.8446-1.7339 3.9153-3.8531zm63.002 1.2989c3.6159-3.2421 16.449-15.948 19.583-19.388 2.4044-2.6397 2.888-3.31 3.0977-4.2932 0.13665-0.64077 0.17115-1.5325 0.0767-1.9815-0.25275-1.2012-2.748-3.9155-23.92-26.02l-1.7582-1.8356-13.529 13.203 6.4452 6.3457c4.4201 4.3518 6.4959 6.5687 6.6066 7.0557 0.25859 1.1377-1.2082 2.9686-7.5404 9.4128-3.1599 3.2157-5.7452 5.9631-5.7452 6.1053 0 0.30235 9.685 9.8124 12.191 11.971 0.94111 0.81059 1.8228 1.4738 1.9593 1.4738 0.13651 0 1.2767-0.92212 2.5337-2.0492zm-28.595-8.2418c5.9809-5.9557 16.215-16.67 16.903-17.697 0.38691-0.57686 0.31651-0.66486-4.0039-5.0048-2.4188-2.4297-7.6704-7.6108-11.67-11.514-6.4472-6.2907-7.364-7.096-8.0783-7.096-0.72845 0-1.9137 1.1243-12.358 11.722-6.3538 6.4471-11.554 11.836-11.557 11.976-0.0051 0.30986 14.574 14.867 19.82 19.79 2.948 2.7666 3.9418 3.5564 4.4811 3.5614 0.56978 5e-3 1.719-1.0152 6.4626-5.7388zm10.728-38.274c0.99805-1.0149 3.8946-4.0247 6.4367-6.6884l4.6221-4.8431-11.1-12.063c-6.1049-6.6344-12.075-13.024-13.268-14.2l-2.1683-2.1376h-1.3501c-1.2734 0-1.4404 0.07844-2.9379 1.3799-2.3159 2.0127-18.308 18.968-22.599 23.96l-2.2573 2.6261 0.4895 0.82955c0.26922 0.45625 3.0316 3.5117 6.1385 6.7899l5.649 5.9604 6.2202-6.1434c5.6569-5.587 7.3656-7.0097 8.4187-7.0097 0.82641 0 3.0657 1.8088 6.9959 5.651 5.4029 5.2819 8.1124 7.7336 8.5469 7.7336 0.19125 0 1.1643-0.8304 2.1624-1.8453z" opacity=".8"/>
  <path transform="scale(.26458)" d="m87.151 209.3 0.0149-52.288-0.95712-1.0808c-0.52642-0.59445-2.1407-2.3785-3.5874-3.9646-2.9507-3.2351-3.8549-4.2311-5.8402-6.4331-0.7582-0.84097-2.3445-2.6004-3.5251-3.9099-1.1806-1.3095-2.8187-3.1215-3.6401-4.0268-0.82145-0.90529-1.9011-2.1005-2.3991-2.6561-0.49806-0.55558-1.9348-2.1466-3.1927-3.5355-8.6336-9.5332-9.0552-9.9991-10.982-12.136-0.75821-0.84096-2.3404-2.5888-3.516-3.8841l-2.1375-2.3551-19.337 0.3438v-30.831l6.3766 0.13407c3.5071 0.07374 7.3658 0.17367 8.5748 0.22208l2.1982 0.08801 2.6973-2.8125c1.4835-1.5469 6.006-6.2188 10.05-10.382s9.2276-9.5032 11.519-11.867c2.2918-2.3635 6.0528-6.2304 8.3578-8.593 10.949-11.223 10.962-11.238 10.947-12.088-0.037608-2.0699-0.38764-12.018-0.5278-15l-0.15727-3.3461h28.605v18.447l1.0733 1.1939c0.59031 0.65665 1.1321 1.2507 1.2041 1.3202 0.0719 0.06945 1.549 1.7173 3.2825 3.6618s4.2316 4.7308 5.5513 6.1917 5.1838 5.769 8.5868 9.5736 8.801 9.8351 11.996 13.401c3.1946 3.5661 6.5822 7.3535 7.5279 8.4165l1.7195 1.9328 17.774 0.1327 0.16102 2.6517c0.0886 1.4584 0.23214 5.3222 0.31908 8.5863 0.0869 3.2641 0.22712 8.5358 0.31153 11.715l0.15348 5.7803-0.59882-0.14784c-0.32935-0.0813-3.1558-0.2155-6.2809-0.2982s-6.6131-0.19653-7.7509-0.25294l-2.0688-0.10256-0.81298 0.93392c-0.44714 0.51365-3.38 3.6026-6.5175 6.8643-8.7685 9.1157-12.256 12.748-20.486 21.335-4.7452 4.9514-9.552 9.95-11.984 12.462-1.2523 1.2935-2.3206 2.3978-2.374 2.4541-0.14911 0.15712-0.0498 64.684 0.13356 86.802l0.16279 19.635h-30.64l0.0149-52.288zm16.797-51.718c3.7446-2.9414 26.381-26.768 26.381-27.768 0-0.45127-12.041-12.624-13.114-13.258l-0.76975-0.45462-1.3068 1.2122c-0.71876 0.66672-1.828 1.7386-2.465 2.3819-4.6749 4.7216-9.7049 9.3099-10.2 9.3039-0.84623-0.0103-3.8367-2.3917-8.8888-7.0785-2.6001-2.4121-5.4339-4.784-5.7156-4.784-0.32041 0-10.155 9.8378-11.936 11.94-1.4744 1.7402-1.4836 1.6994 1.0032 4.475 2.4009 2.6797 13.1 14.385 20.171 22.069l2.5124 2.73 1.7897-0.0904c1.402-0.0708 1.9518-0.21775 2.5383-0.67847zm-29.38-35.584c6.7911-6.8743 9.1372-9.5346 8.8542-10.04-0.10602-0.18944-2.4682-2.7098-5.2493-5.6008-6.4995-6.7563-7.5594-7.9082-7.9293-8.6174-0.27656-0.53021-0.17363-0.73637 1.1348-2.2728 0.7914-0.92936 3.5855-3.9218 6.2092-6.6499 4.8122-5.0037 5.9038-6.2224 5.7358-6.4035-0.80249-0.86509-5.3541-5.4439-8.5269-8.5779l-4.0816-4.0317-25.238 25.234 0.0011 3.0314 0.0011 3.0314 12.415 12.438c6.828 6.8406 12.489 12.438 12.58 12.438 0.09085 0 1.9334-1.7899 4.0946-3.9775zm63.085 1.2933c4.9214-4.4705 20.385-20.011 21.648-21.755 0.98491-1.3603 1.2963-3.1988 0.72803-4.2978-0.21561-0.41694-1.4403-1.9345-2.7216-3.3724-2.3668-2.656-3.0217-3.3576-8.5696-9.1803-1.7204-1.8056-4.1514-4.3589-5.4021-5.6739-4.9899-5.2463-8.824-9.1044-8.9845-9.0406-0.0931 0.03699-3.1581 2.9957-6.8112 6.575l-6.6419 6.5077 6.4832 6.5272c4.5337 4.5645 6.4832 6.6942 6.4832 7.0828 0 1.2347-1.3055 2.8264-8.036 9.7975-2.7333 2.831-5.0004 5.2832-5.0378 5.4491-0.073 0.32322 8.335 8.7899 11.684 11.766 1.1108 0.98692 2.1904 1.7944 2.3993 1.7944 0.20888 0 1.4593-0.98058 2.7787-2.1791zm-27.287-9.6271c7.9028-7.9349 14.158-14.491 15.134-15.863l0.62343-0.8762-0.73776-0.79207c-1.4388-1.5447-18.197-18.09-20.356-20.097-1.206-1.1213-2.433-2.115-2.7268-2.2082-0.36775-0.11672-0.78596 0.02361-1.3428 0.45063-1.6258 1.2466-22.731 22.706-22.848 23.231-0.097 0.4364 19.119 19.537 22.743 22.606 1.7086 1.4471 1.5137 1.5793 9.5114-6.451zm9.9872-37.502c4.5818-4.6498 10.229-10.601 10.229-10.779 0-0.09596-0.25397-0.45159-0.56439-0.7903-1.085-1.1838-3.8251-4.1619-4.9816-5.4141-0.64139-0.69448-2.5195-2.74-4.1736-4.5457-1.6541-1.8056-3.8088-4.1353-4.7883-5.177-0.97949-1.0417-3.1446-3.3662-4.8114-5.1656-1.6668-1.7994-3.9964-4.2254-5.177-5.3913l-2.1466-2.1197-1.3096 0.1074c-1.04 0.08529-1.5387 0.2951-2.4222 1.0191-1.1732 0.96133-8.7095 8.7482-14.845 15.338-2.0043 2.1529-4.2295 4.5394-4.9448 5.3033-0.71532 0.76393-2.2706 2.5146-3.4562 3.8904l-2.1556 2.5014 0.5773 0.84958c0.63652 0.93672 1.2306 1.5973 6.093 6.7745 1.8263 1.9445 3.8096 4.0753 4.4074 4.7351 0.59776 0.65976 1.1648 1.1996 1.2601 1.1996 0.09528 0 0.95853-0.77126 1.9183-1.7139 6.6756-6.5563 10.616-10.227 11.595-10.8l1.1358-0.66565 1.099 0.64408c1.1453 0.67119 3.738 3.0003 8.8762 7.974 3.694 3.5756 5.1481 4.8145 5.6512 4.8145 0.2108 0 1.5311-1.1648 2.9339-2.5885z" opacity=".8"/>
  <path transform="scale(.26458)" d="m87.14 209.25-0.0061-52.339-11.539-12.753c-6.3467-7.0142-15.241-16.844-19.766-21.845l-8.2262-9.0914-19.551 0.1254v-30.823l5.8715 0.13723c3.2293 0.07548 7.0726 0.19312 8.5405 0.26143l2.669 0.12419 21.566-22.223c11.862-12.223 21.693-22.48 21.847-22.793 0.20652-0.41977 0.19686-2.7712-0.03657-8.9042-0.17446-4.5836-0.32546-8.7599-0.33556-9.2808l-0.01837-0.94702h28.537v18.484l3.1054 3.4481c3.2583 3.6178 4.6018 5.1165 25.107 28.007l12.725 14.205h17.643l0.11839 0.56821c0.17075 0.81953 0.54346 11.007 0.79446 21.717l0.15237 6.5011-1.096-0.13013c-0.6028-0.0716-4.3348-0.2393-8.2933-0.37273l-7.1973-0.2426-1.3902 1.4477c-0.76462 0.79626-3.6209 3.7774-6.3472 6.6248-2.7264 2.8474-11.625 12.109-19.776 20.582l-14.818 15.405 0.0979 53.222 0.0979 53.222h-30.469zm15.695-51.119c0.66064-0.13142 1.8389-1.1395 5.2395-4.4826 8.501-8.3572 22.256-23.074 22.256-23.813 0-0.45753-11.92-12.533-13.079-13.249-0.46068-0.28471-0.88072-0.47629-0.93344-0.42572-0.0527 0.0506-2.5209 2.4358-5.485 5.3005-5.8114 5.6168-7.9612 7.5446-8.4132 7.5446-0.58648 0-2.6368-1.5798-6.2921-4.848-5.7787-5.1668-7.9626-7.0213-8.2687-7.0213-0.32659 0-10.723 10.411-12.177 12.194-0.835 1.0239-0.94457 1.2914-0.72384 1.7668 0.30078 0.64789 2.4888 3.0907 15.261 17.038l9.3081 10.165h1.2277c0.67523 0 1.6112-0.0763 2.08-0.16956zm-27.277-37.143c4.4949-4.5687 8.0522-8.4567 8.0522-8.8007 0-0.16139-2.9016-3.2576-7.0765-7.5512-4.7555-4.8907-6.3085-6.6848-6.3019-7.2804 0.0074-0.66442 1.8243-2.7509 8.278-9.5065 2.6812-2.8066 4.8404-5.2026 4.7982-5.3245-0.0698-0.20179-4.9583-5.1688-10.422-10.589l-2.1603-2.1433-25.249 25.245v6.0807l12.433 12.429c6.8381 6.8357 12.502 12.429 12.587 12.429 0.0847 0 2.3622-2.2444 5.061-4.9876zm61.135 3.179c2.9627-2.4267 22.557-22.242 23.049-23.309 0.79611-1.7264 0.78684-2.8888-0.0327-4.0974-1.228-1.811-11.523-12.865-21.58-23.173l-3.6908-3.7825-6.7264 6.5486c-3.6995 3.6017-6.7264 6.5959-6.7264 6.6538 0 0.05787 2.7892 2.9362 6.1982 6.3964 3.409 3.4601 6.3188 6.5559 6.4662 6.8794 0.5374 1.1795-0.63693 2.6753-8.8132 11.226-2.2571 2.3604-4.1037 4.3917-4.1037 4.514s2.5285 2.7228 5.619 5.7789c5.2229 5.1648 8.0083 7.6679 8.5327 7.6679 0.11921 0 0.93291-0.58658 1.8082-1.3035zm-31.935-4.9722c3.5808-3.1626 19.802-19.919 20.889-21.58l0.46313-0.70682-2.4996-2.5759c-4.8536-5.0018-19.935-19.672-20.73-20.163-0.73358-0.45424-0.86772-0.4653-1.5152-0.12493-0.97013 0.50994-22.555 22.248-23.154 23.319-0.18508 0.33073 1.7427 2.3706 9.844 10.416 10.631 10.558 13.436 13.146 14.246 13.146 0.27335 0 1.3784-0.77851 2.4558-1.73zm13.371-40.877c0.76483-0.50113 12.453-12.663 12.453-12.958 0-0.10807-2.8062-3.2475-6.236-6.9765-10.1-10.981-12.828-13.894-16.72-17.854l-3.6863-3.75-1.3096 0.10761c-1.0398 0.08544-1.5388 0.29544-2.4222 1.0193-2.4385 1.9981-23.068 23.898-24.941 26.476-0.47414 0.65284-0.47302 0.66392 0.15384 1.5152 0.72971 0.99097 11.485 12.601 11.673 12.601 0.18918 0 2.2043-1.8904 7.4173-6.9584 4.0917-3.9778 6.6834-6.1736 7.2869-6.1736 0.27986 0 2.154 1.3238 3.1941 2.2562 0.5321 0.47698 2.711 2.5225 4.8419 4.5457 4.4543 4.229 7.1064 6.5826 7.4174 6.5826 0.11906 0 0.51416-0.19505 0.87799-0.43345z" opacity=".8"/>
  <path transform="scale(.26458)" d="m87.137 209.25-0.0091-52.339-4.5997-5.0616c-3.999-4.4006-11.485-12.672-30.463-33.661l-4.6497-5.1425-19.364 0.37088v-30.91l6.5029 0.14735c3.5766 0.08104 7.412 0.2039 8.5232 0.27301l2.0203 0.12566 6.1645-6.3811c3.3905-3.5096 8.0536-8.3131 10.362-10.674 4.1405-4.2344 16.762-17.256 23.602-24.349l3.5105-3.6408-0.16945-6.4607c-0.09319-3.5534-0.24082-7.8528-0.32807-9.5543l-0.15862-3.0936h28.612v18.431l18.727 20.9c10.3 11.495 19.518 21.78 20.485 22.857l1.7579 1.9572h8.7921c8.1553 0 8.8016 0.03201 8.9229 0.44194 0.16651 0.56278 0.59419 11.672 0.81152 21.08l0.16758 7.254-1.6112-0.12815c-0.88615-0.0705-4.6227-0.23323-8.3034-0.36166l-6.6923-0.23352-2.8065 2.9566c-1.5436 1.6261-11.07 11.537-21.17 22.023l-18.363 19.067 0.12167 53.222 0.12167 53.222h-30.508zm17.352-52.146c3.946-3.3105 25.819-26.414 25.835-27.287 7e-3 -0.38393-12.176-12.684-13.186-13.314l-0.69145-0.43069-5.622 5.4302c-5.814 5.6156-7.9331 7.5034-8.4232 7.5034-0.69005 0-2.4403-1.4094-9.0567-7.293-2.0897-1.8582-4.1657-3.6593-4.6134-4.0023l-0.81396-0.62365-2.65 2.4642c-4.3165 4.0139-10.496 10.646-10.496 11.265 0 0.2531 2.2386 2.8517 5.863 6.8059 1.5763 1.7197 6.4934 7.0893 10.927 11.932l8.061 8.8056 1.8243-0.11708c1.6866-0.10824 1.9164-0.19427 3.0425-1.1391zm-28.943-36.116c2.6806-2.7432 5.5885-5.8252 6.4621-6.8489 1.4524-1.702 1.5583-1.9041 1.2379-2.3615-0.19272-0.27513-2.4984-2.7332-5.1236-5.4623-6.5178-6.7757-7.8966-8.3364-7.8966-8.939 0-0.70207 0.80092-1.6348 7.4173-8.6377 3.1431-3.3267 5.7147-6.1118 5.7147-6.1891 0-0.07726-2.8413-2.98-6.3139-6.4506l-6.3139-6.3101-25.253 25.249v6.0609l12.437 12.438c6.8401 6.8412 12.509 12.438 12.598 12.438 0.08858 0 2.3543-2.2444 5.0349-4.9876zm61.406 2.9184c2.4885-2.1184 20.56-20.195 21.868-21.875 1.1597-1.4888 1.6772-2.9845 1.4269-4.1241-0.19527-0.88908-1.5621-2.5691-5.8892-7.2382-4.1448-4.4725-13.212-13.995-16.995-17.849l-2.971-3.0264-4.7459 4.6803c-2.6103 2.5742-5.6512 5.5463-6.7576 6.6047l-2.0117 1.9245 6.3428 6.4345c3.4886 3.539 6.4138 6.6583 6.5006 6.9318 0.0868 0.27348 0.0474 0.78756-0.0875 1.1424-0.32047 0.8429-2.5346 3.4698-5.5787 6.6189-6.1741 6.3868-7.3294 7.7195-7.0863 8.1738 0.32016 0.59823 10.178 10.25 12.116 11.863 0.8609 0.71644 1.6701 1.3026 1.7982 1.3026s1.0598-0.70385 2.0703-1.5641zm-31.937-4.9613c3.5607-3.1932 19.703-19.921 20.733-21.485 0.40065-0.60843 0.3757-0.63547-10.606-11.495-6.0541-5.9871-11.477-11.211-12.052-11.609l-1.0445-0.72385-1.048 0.72625c-1.1298 0.78295-22.305 22.135-22.739 22.929-0.22874 0.41857 0.99011 1.7233 9.6791 10.361 10.282 10.221 13.597 13.278 14.401 13.278 0.25778 0 1.4621-0.89086 2.6762-1.9797zm15.835-43.311c2.8166-2.8873 6.0001-6.2038 8.6981-9.0616l1.1119-1.1778-0.83554-0.96122c-2.4777-2.8504-18.831-20.456-22.086-23.778l-3.7987-3.8763-1.3301 0.13352c-1.7606 0.17674-2.167 0.51755-8.5547 7.1744-10.757 11.21-19.031 20.288-19.031 20.88 0 0.16523 0.26875 0.66468 0.59721 1.1099 0.99322 1.3462 11.361 12.434 11.559 12.361 0.10146-0.03689 2.4364-2.237 5.1888-4.8891 7.9902-7.6991 8.9439-8.4531 9.9943-7.9023 1.0951 0.57425 3.1313 2.3256 7.1319 6.1345 5.7589 5.4828 7.4448 6.9686 7.9073 6.9686 0.22356 0 1.7747-1.4025 3.4469-3.1168z" opacity=".8"/>
  <path transform="scale(.26458)" d="m87.132 209.25-0.01351-52.339-6.087-6.6923c-3.3479-3.6807-8.6545-9.536-11.793-13.012-3.1381-3.4757-9.3329-10.327-13.766-15.224l-8.0606-8.9044-19.36 0.35004v-30.942l7.0079 0.15826c3.8544 0.08704 7.6898 0.21595 8.5232 0.28647l1.5152 0.12821 5.7958-6.0058c3.1877-3.3032 9.4417-9.756 13.898-14.34 13.805-14.2 22.242-22.94 23.111-23.941l0.83377-0.96048-0.16711-5.7318c-0.09191-3.1525-0.2395-7.408-0.32797-9.4567l-0.16086-3.7249h28.612v18.412l6.8817 7.6646c3.7849 4.2155 9.6659 10.779 13.069 14.585 3.403 3.806 7.3236 8.1801 8.7126 9.7203 1.389 1.5402 4.7285 5.267 7.4212 8.2818l4.8958 5.4814h17.599l0.12733 0.56821c0.1736 0.77466 0.58952 11.573 0.79743 20.703l0.17097 7.508-1.9952-0.13187c-1.0973-0.0725-4.8362-0.23371-8.3086-0.35819-4.7985-0.17202-6.3794-0.15433-6.5882 0.0737-0.64959 0.70948-12.804 13.404-15.036 15.705-1.3477 1.389-7.9814 8.2643-14.742 15.279l-12.291 12.753 0.14702 53.222 0.14701 53.222h-30.556zm15.797-51.225c0.84327-0.22787 2.0949-1.3645 7.5761-6.8802 9.1402-9.1976 19.824-20.72 19.824-21.38 0-0.32285-12.319-12.7-13.19-13.252l-0.68906-0.43672-5.6244 5.4346c-5.7537 5.5595-7.9281 7.4958-8.4175 7.4958-0.60297 0-2.7355-1.6823-7.6872-6.0642-2.8474-2.5197-5.5441-4.8684-5.9928-5.2194l-0.81576-0.6381-2.7624 2.6147c-4.5655 4.3214-10.38 10.541-10.38 11.103 0 0.27446 2.3863 3.0006 7.8223 8.9364 2.1624 2.3612 5.8611 6.399 8.2193 8.9729 2.3582 2.5739 5.297 5.7843 6.5306 7.1342 2.2181 2.4273 2.2558 2.4544 3.4093 2.453 0.6415-7.6e-4 1.6209-0.12424 2.1765-0.27438zm-27.642-36.78c5.5387-5.6822 8.0707-8.5206 8.0707-9.0474 0-0.36678-1.1857-1.6657-7.4784-8.1922-4.223-4.3799-5.6535-6.0699-5.6535-6.6788 0-0.61154 2.1278-3.0461 9.0611-10.368 2.2361-2.3612 4.0668-4.3508 4.0682-4.4213 0.0015-0.07049-2.8386-2.9677-6.3113-6.4383l-6.3139-6.3101-25.253 25.249v6.0609l12.437 12.438c6.8401 6.8412 12.51 12.438 12.599 12.438 0.08945 0 2.2379-2.129 4.7743-4.7312zm61.74 2.5403c2.3027-1.9648 17.505-17.037 20.418-20.244 2.3554-2.5927 2.7382-3.2665 2.7623-4.8626 0.0209-1.3834-0.36533-1.9596-4.0398-6.0273-3.7442-4.145-21.519-22.739-21.738-22.739-0.2085 0-13.317 12.967-13.317 13.173 0 0.10829 2.5065 2.7286 5.5699 5.8229 6.997 7.0675 7.2709 7.3875 7.0572 8.2457-0.26878 1.0796-1.77 2.864-7.5372 8.9588-4.4319 4.6836-5.4164 5.8513-5.229 6.2017 0.58631 1.0955 13.302 13.156 13.87 13.156 0.11413 0 1.0966-0.7586 2.1832-1.6858zm-32.114-4.7715c2.2479-1.9706 16.316-16.385 19.403-19.881l1.7386-1.9689-0.51494-0.72316c-0.67527-0.94834-19.905-19.921-21.802-21.512-0.80587-0.67533-1.57-1.2279-1.6982-1.2279-0.55234 0-4.2734 3.5742-13.302 12.777-5.3013 5.4036-9.8894 10.147-10.196 10.541l-0.55713 0.71627 9.695 9.6402c10.143 10.085 13.879 13.55 14.614 13.55 0.24142 0 1.4202-0.86023 2.6196-1.9116zm16.133-43.608c1.8019-1.8404 4.703-4.8562 6.447-6.7018l3.1708-3.3557-0.75237-0.81118c-0.4138-0.44615-2.6749-2.9136-5.0246-5.4831-2.3498-2.5696-4.9649-5.4106-5.8115-6.3135s-3.9326-4.1984-6.8578-7.3236c-2.9253-3.1252-6.0044-6.3521-6.8424-7.1711l-1.5237-1.489-1.2081 0.16558c-0.67881 0.09304-1.6428 0.46684-2.2003 0.85321-2.2179 1.537-25.418 26.393-25.418 27.232 0 0.15985 0.3402 0.71872 0.75599 1.2419 1 1.2584 8.4312 9.2447 10.144 10.902l1.3476 1.3038 4.1669-4.0358c5.305-5.1381 8.7232-8.2218 9.6387-8.6952 0.57102-0.29528 0.83695-0.3109 1.2858-0.07552 1.0831 0.56796 3.1147 2.3048 6.8568 5.8619 5.2751 5.0143 7.7939 7.2382 8.2 7.2398 0.1918 7.58e-4 1.823-1.5044 3.6248-3.3448z" opacity=".8"/>
  <path transform="scale(.26458)" d="m130.49 102.17c0.70626-0.7292 1.8104-1.9837 2.4536-2.7877 0.95458-1.1933 1.1695-1.3566 1.1695-0.88888 0 0.38279-0.73188 1.3083-2.2044 2.7877-1.2124 1.2181-2.3166 2.2147-2.4536 2.2147-0.13704 0 0.32868-0.59662 1.035-1.3258z" opacity=".8"/>
 </g>
</svg>
